# Blender 4.4.0
# www.blender.org
o Plane
v -0.029367 0.036709 0.000000 1.0000 1.0000 1.0000
v 0.029367 0.036709 0.000000 1.0000 1.0000 1.0000
v 0.000000 -0.036709 0.000000 1.0000 1.0000 1.0000
v 0.014683 0.007342 0.000000 1.0000 1.0000 1.0000
v -0.014683 0.007342 0.000000 1.0000 1.0000 1.0000
v -0.036709 -0.007342 0.000000 1.0000 1.0000 1.0000
v 0.011013 -0.007342 0.000000 1.0000 1.0000 1.0000
v -0.011013 -0.007342 0.000000 1.0000 1.0000 1.0000
v 0.036709 -0.007342 0.000000 1.0000 1.0000 1.0000
v 0.000000 0.018354 0.000000 1.0000 1.0000 1.0000
v -1.700000 -1.000000 0.000000 1.0000 1.0000 1.0000
v 1.700000 -1.000000 0.000000 1.0000 1.0000 1.0000
v -1.700000 1.000000 0.000000 1.0000 1.0000 1.0000
v 1.700000 1.000000 0.000000 1.0000 1.0000 1.0000
v 0.000000 1.000000 0.000000 1.0000 1.0000 1.0000
v 0.000000 -1.000000 0.000000 1.0000 1.0000 1.0000
v -1.700000 0.000000 0.000000 1.0000 1.0000 1.0000
v 1.700000 0.000000 0.000000 1.0000 1.0000 1.0000
vn -0.0000 -0.0000 1.0000
vt 0.000000 0.000000
s 0
f 10/1/1 15/1/1 1/1/1
f 13/1/1 1/1/1 15/1/1
f 3/1/1 11/1/1 16/1/1
f 5/1/1 17/1/1 6/1/1
f 17/1/1 5/1/1 13/1/1
f 5/1/1 1/1/1 13/1/1
f 8/1/1 11/1/1 3/1/1
f 6/1/1 11/1/1 8/1/1
f 10/1/1 2/1/1 15/1/1
f 15/1/1 2/1/1 14/1/1
f 2/1/1 4/1/1 14/1/1
f 18/1/1 4/1/1 9/1/1
f 18/1/1 14/1/1 4/1/1
f 18/1/1 9/1/1 12/1/1
f 9/1/1 7/1/1 12/1/1
f 12/1/1 3/1/1 16/1/1
f 3/1/1 12/1/1 7/1/1
f 11/1/1 6/1/1 17/1/1
