# Blender v3.0.1 OBJ File: 'shapes.blend'
# www.blender.org
o corner_2tex_Corner.001
v -1.000000 -1.000000 -1.000000
v -1.000000 1.000000 -1.000000
v 1.000000 -1.000000 -1.000000
v 1.000000 -1.000000 1.000000
v 1.000000 1.000000 -1.000000
v 1.000000 1.000000 1.000000
vt 1.000000 1.000000
vt -0.000000 1.000000
vt 1.000000 0.500000
vt 1.000000 0.000000
vt 0.000000 0.500000
vt 0.000000 0.000000
vt -0.000000 0.500000
vt 1.000000 0.000000
vt 1.000000 0.500000
vt 0.000000 0.500000
vt 1.000000 0.000000
vt 1.000000 0.500000
vt 0.000000 0.500000
vt 1.000000 1.000000
vt 0.000000 1.000000
vt -0.000000 0.000000
vt 0.000000 0.000000
vn 0.0000 1.0000 0.0000
vn -0.7071 0.0000 0.7071
vn 1.0000 0.0000 0.0000
vn 0.0000 0.0000 -1.0000
vn 0.0000 -1.0000 0.0000
g cullu
s off
f 5/1/1 2/2/1 6/3/1
g nocull
f 4/4/2 2/5/2 1/6/2
g culle
f 6/7/3 3/8/3 5/9/3
g culln
f 5/10/4 1/11/4 2/12/4
g culld
f 4/13/5 1/14/5 3/15/5
g nocull
f 4/4/2 6/3/2 2/5/2
g culle
f 6/7/3 4/16/3 3/8/3
g culln
f 5/10/4 3/17/4 1/11/4
