# Blender v3.0.1 OBJ File: 'shapes.blend'
# www.blender.org
v -0.400000 -1.000000 1.000000
v -0.400000 1.000000 1.000000
v -1.000000 -1.000000 -0.400000
v -1.000000 1.000000 -0.400000
v 1.000000 -1.000000 0.400000
v 1.000000 1.000000 0.400000
v 0.400000 -1.000000 -1.000000
v 0.400000 1.000000 -1.000000
v -0.400000 -1.000000 -1.000000
v -0.400000 1.000000 -1.000000
v 0.400000 -1.000000 1.000000
v 0.400000 1.000000 1.000000
v -1.000000 -1.000000 0.400000
v -1.000000 1.000000 0.400000
v 1.000000 -1.000000 -0.400000
v 1.000000 1.000000 -0.400000
v -0.400000 -1.000000 1.000000
v -0.400000 1.000000 1.000000
v -1.000000 1.000000 -0.400000
v 1.000000 1.000000 0.400000
v 0.400000 1.000000 -1.000000
v -0.400000 1.000000 -1.000000
v 0.400000 1.000000 1.000000
v -1.000000 1.000000 0.400000
v 1.000000 1.000000 -0.400000
v 0.000000 1.000000 0.000000
v -1.000000 -1.000000 -0.400000
v 1.000000 -1.000000 0.400000
v 0.400000 -1.000000 -1.000000
v -0.400000 -1.000000 -1.000000
v 0.400000 -1.000000 1.000000
v -1.000000 -1.000000 0.400000
v 1.000000 -1.000000 -0.400000
v 0.000000 -1.000000 0.000000
vt 1.125000 0.000000
vt 1.125000 1.000000
vt 0.875000 1.000000
vt 0.875000 0.000000
vt 0.625000 0.000000
vt 0.625000 1.000000
vt 0.375000 1.000000
vt 0.375000 0.000000
vt 0.125000 0.000000
vt 0.125000 1.000000
vt -0.125000 1.000000
vt -0.125000 0.000000
vt 1.625000 0.000000
vt 1.625000 1.000000
vt 1.375000 1.000000
vt 1.375000 0.000000
vt -0.375000 1.000000
vt -0.375000 0.000000
vt 0.722222 0.000000
vt 1.000000 0.277778
vt 0.500000 0.500000
vt 0.000000 0.277778
vt 0.277778 0.000000
vt 0.722222 1.000000
vt 0.277778 1.000000
vt 1.000000 0.722222
vt 0.000000 0.722222
vt 0.500000 0.500000
vt 0.277778 0.000000
vt 0.722222 0.000000
vt 1.000000 0.277778
vt 1.000000 0.722222
vt 0.722222 1.000000
vt 0.000000 0.722222
vt 0.277778 1.000000
vt 0.000000 0.277778
vn -1.0000 0.0000 0.0000
vn 0.0000 0.0000 -1.0000
vn 1.0000 0.0000 0.0000
vn 0.0000 0.0000 1.0000
vn 0.7071 0.0000 0.7071
vn -0.7071 0.0000 -0.7071
vn 0.7071 0.0000 -0.7071
vn -0.7071 0.0000 0.7071
vn 0.0000 -1.0000 0.0000
vn 0.0000 1.0000 0.0000
g nocull
s off
f 13/1/1 14/2/1 4/3/1 3/4/1
f 9/5/2 10/6/2 8/7/2 7/8/2
f 15/9/3 16/10/3 6/11/3 5/12/3
f 11/13/4 12/14/4 2/15/4 1/16/4
f 5/12/5 6/11/5 12/17/5 11/18/5
f 3/4/6 4/3/6 10/6/6 9/5/6
f 7/8/7 8/7/7 16/10/7 15/9/7
f 1/16/8 2/15/8 14/2/8 13/1/8
g culld
f 29/19/9 33/20/9 34/21/9
f 27/22/9 30/23/9 34/21/9
f 34/21/9 31/24/9 17/25/9
f 34/21/9 33/20/9 28/26/9
f 29/19/9 34/21/9 30/23/9
f 27/22/9 34/21/9 32/27/9
f 34/21/9 17/25/9 32/27/9
f 34/21/9 28/26/9 31/24/9
g cullu
f 26/28/10 18/29/10 23/30/10
f 26/28/10 20/31/10 25/32/10
f 21/33/10 26/28/10 25/32/10
f 19/34/10 26/28/10 22/35/10
f 26/28/10 24/36/10 18/29/10
f 26/28/10 23/30/10 20/31/10
f 21/33/10 22/35/10 26/28/10
f 19/34/10 24/36/10 26/28/10
