# Blender 5.0.0
# www.blender.org
mtllib handrail.mtl
o Handrail
v 1.000000 -1.000000 0.300000
v -1.000000 -1.000000 0.300000
v 1.000000 -1.000000 -0.300000
v -1.000000 -1.000000 -0.300000
v 1.000000 0.000000 0.300000
v -1.000000 0.000000 0.300000
v -1.000000 -0.000000 -0.300000
v 1.000000 -0.000000 -0.300000
vn -0.0000 1.0000 -0.0000
vn -1.0000 -0.0000 -0.0000
vn -0.0000 -0.0000 -1.0000
vn -0.0000 -0.0000 1.0000
vn 1.0000 -0.0000 -0.0000
vn -0.0000 -1.0000 -0.0000
vt 0.750000 0.500000
vt -0.000000 0.750000
vt 0.000000 0.500000
vt 1.000000 0.500000
vt 0.750000 0.000000
vt 1.000000 0.000000
vt 0.000000 0.625000
vt 1.000000 0.375000
vt 0.000000 0.375000
vt 0.750000 0.750000
vt 0.000000 0.000000
vt 1.000000 0.625000
s 0
usemtl Material
f 5/1/1 7/2/1 6/3/1
f 7/4/2 2/5/2 6/1/2
f 8/3/3 4/5/3 7/1/3
f 6/3/4 1/5/4 5/1/4
f 8/4/5 1/5/5 3/6/5
f 4/7/6 1/8/6 2/9/6
f 5/1/1 8/10/1 7/2/1
f 7/4/2 4/6/2 2/5/2
f 8/3/3 3/11/3 4/5/3
f 6/3/4 2/11/4 1/5/4
f 8/4/5 5/1/5 1/5/5
f 4/7/6 3/12/6 1/8/6
