# Blender 5.0.1
# www.blender.org
mtllib liquid.mtl
o Liquid
v -1.000000 2.700000 1.000000
v -1.000000 2.700000 -1.000000
v 1.000000 2.700000 1.000000
v 1.000000 2.700000 -1.000000
v 0.000000 1.000000 0.000000
v 0.750000 -0.000000 0.433013
v -0.750000 -0.000000 0.433013
v 0.000000 -0.000000 -0.866025
vn -0.0000 1.0000 -0.0000
vn 0.7947 0.3974 -0.4588
vn -0.0000 0.3974 0.9177
vn -0.7947 0.3974 -0.4588
vn -0.0000 -1.0000 -0.0000
vt -0.000000 1.000000
vt 1.000000 -0.000000
vt 1.000000 1.000000
vt -0.000000 -0.000000
vt 0.666667 0.666667
vt 0.500000 1.000000
vt 0.333333 0.666667
vt 0.166667 1.000000
vt 0.000000 0.666667
vt 1.000000 0.666667
vt 0.833333 1.000000
s 0
g Liquid_primary.001
usemtl primary.001
f 2/1/1 3/2/1 4/3/1
f 2/1/1 1/4/1 3/2/1
f 8/5/2 5/6/2 6/7/2
f 6/7/3 5/8/3 7/9/3
f 7/10/4 5/11/4 8/5/4
f 6/7/5 7/10/5 8/5/5
