# Blender v3.0.1 OBJ File: 'shapes.blend'
# www.blender.org
v 1.000000 -1.000000 0.300000
v 1.000000 1.000000 0.300000
v -1.000000 -1.000000 0.300000
v -1.000000 1.000000 0.300000
v 1.000000 -1.000000 -0.300000
v 1.000000 1.000000 -0.300000
v -1.000000 -1.000000 -0.300000
v -1.000000 1.000000 -0.300000
vt 1.000000 0.000000
vt 1.000000 1.000000
vt 0.000000 1.000000
vt 0.000000 0.000000
vt 0.375000 0.000000
vt 0.375000 1.000000
vt 0.625000 1.000000
vt 0.625000 0.000000
vt 1.000000 0.000000
vt 1.000000 1.000000
vt 0.000000 1.000000
vt 0.000000 0.000000
vt 0.625000 0.000000
vt 0.625000 1.000000
vt 0.375000 1.000000
vt 0.375000 0.000000
vt 0.000000 0.375000
vt 0.000000 0.625000
vt 1.000000 0.625000
vt 1.000000 0.375000
vt 0.000000 0.625000
vt 0.000000 0.375000
vt 1.000000 0.375000
vt 1.000000 0.625000
vn 0.0000 0.0000 1.0000
vn -1.0000 0.0000 0.0000
vn 0.0000 0.0000 -1.0000
vn 1.0000 0.0000 0.0000
vn 0.0000 -1.0000 0.0000
vn 0.0000 1.0000 0.0000
g culls
s off
f 1/1/1 2/2/1 4/3/1 3/4/1
g cullw
f 3/5/2 4/6/2 8/7/2 7/8/2
g culln
f 7/9/3 8/10/3 6/11/3 5/12/3
g culle
f 5/13/4 6/14/4 2/15/4 1/16/4
g culld
f 3/17/5 7/18/5 5/19/5 1/20/5
g cullu
f 8/21/6 4/22/6 2/23/6 6/24/6
