# Blender v3.0.1 OBJ File: 'shapes.blend'
# www.blender.org
v 1.000000 -1.000000 1.000000
v -1.000000 -1.000000 1.000000
v 1.000000 -1.000000 -1.000000
v -1.000000 1.000000 -1.000000
v -1.000000 -1.000000 -1.000000
v 1.000000 -1.000000 -1.000000
v -1.000000 1.000000 -1.000000
v -1.000000 -1.000000 -1.000000
vt 0.000000 0.000000
vt 1.000000 0.000000
vt 0.000000 1.000000
vt 1.000000 0.000000
vt 0.000000 0.000000
vt 0.000000 1.000000
vt 1.000000 0.000000
vt 1.000000 1.000000
vt 1.000000 1.000000
vt -0.000000 -0.000000
vt 1.000000 0.000000
vt 1.000000 1.000000
vt 0.000000 0.000000
vn -1.0000 0.0000 0.0000
vn 0.0000 0.7071 0.7071
vn 0.0000 -1.0000 0.0000
vn 0.7071 0.7071 0.0000
vn 0.0000 0.0000 -1.0000
g cullw
s off
f 5/1/1 2/2/1 4/3/1
g nocull
f 1/4/2 4/3/2 2/5/2
g culld
f 2/6/3 5/1/3 3/7/3 1/8/3
g nocull
f 4/9/4 1/10/4 3/7/4
g culln
f 8/11/5 7/12/5 6/13/5
